HIERARCHY
ROOT Hips
{
  OFFSET 5.80788e-005 67.184 3.4734
  CHANNELS 6 Xposition Yposition Zposition Zrotation Xrotation Yrotation
  JOINT Chest
  {
    OFFSET 0 8.7983 -4.7612
    CHANNELS 6 Xposition Yposition Zposition Zrotation Xrotation Yrotation
    JOINT Chest2
    {
      OFFSET 0 8.0291 0.4195
      CHANNELS 6 Xposition Yposition Zposition Zrotation Xrotation Yrotation
      JOINT Chest3
      {
        OFFSET 0 9.9351 -2.2114
        CHANNELS 6 Xposition Yposition Zposition Zrotation Xrotation Yrotation
        JOINT Neck
        {
          OFFSET 0 22.3885 -0.4656
          CHANNELS 6 Xposition Yposition Zposition Zrotation Xrotation Yrotation
          JOINT Head
          {
            OFFSET -0.0001 12.643 3.4389
            CHANNELS 6 Xposition Yposition Zposition Zrotation Xrotation Yrotation
            End Site
            {
              OFFSET 0.0001 17.6655 0.5274
            }
          }
        }
        JOINT LeftCollar
        {
          OFFSET 2.2603 21.606 7.4023
          CHANNELS 6 Xposition Yposition Zposition Zrotation Xrotation Yrotation
          JOINT LeftShoulder
          {
            OFFSET 13.5163 -1.1332 -5.0146
            CHANNELS 6 Xposition Yposition Zposition Zrotation Xrotation Yrotation
            JOINT LeftElbow
            {
              OFFSET -0.0995 -28.05 -0.2431
              CHANNELS 6 Xposition Yposition Zposition Zrotation Xrotation Yrotation
              JOINT LeftWrist
              {
                OFFSET 0.0679 -23.3996 -0.1402
                CHANNELS 6 Xposition Yposition Zposition Zrotation Xrotation Yrotation
                JOINT LeftFinger1
                {
                  OFFSET 0.7932 -9.069 2.5189
                  CHANNELS 6 Xposition Yposition Zposition Zrotation Xrotation Yrotation
                  JOINT LeftFinger11
                  {
                    OFFSET -0.8272 -3.3923 0.5977
                    CHANNELS 6 Xposition Yposition Zposition Zrotation Xrotation Yrotation
                    JOINT LeftFinger12
                    {
                      OFFSET -0.5649 -2.3158 0.4082
                      CHANNELS 6 Xposition Yposition Zposition Zrotation Xrotation Yrotation
                      End Site
                      {
                        OFFSET -0.4919 -1.6479 0.2673
                      }
                    }
                  }
                }
                JOINT LeftFinger2
                {
                  OFFSET 0.9159 -9.2044 0.2193
                  CHANNELS 6 Xposition Yposition Zposition Zrotation Xrotation Yrotation
                  JOINT LeftFinger21
                  {
                    OFFSET 0.0117 -4.1944 -0.0248
                    CHANNELS 6 Xposition Yposition Zposition Zrotation Xrotation Yrotation
                    JOINT LeftFinger22
                    {
                      OFFSET 0.0071 -2.3249 -0.0142
                      CHANNELS 6 Xposition Yposition Zposition Zrotation Xrotation Yrotation
                      End Site
                      {
                        OFFSET -0.1475 -2.0882 0.0028
                      }
                    }
                  }
                }
                JOINT LeftFinger3
                {
                  OFFSET 0.6113 -8.7231 -2.0637
                  CHANNELS 6 Xposition Yposition Zposition Zrotation Xrotation Yrotation
                  JOINT LeftFinger31
                  {
                    OFFSET -0.1927 -3.8059 -0.2383
                    CHANNELS 6 Xposition Yposition Zposition Zrotation Xrotation Yrotation
                    JOINT LeftFinger32
                    {
                      OFFSET -0.1091 -2.1688 -0.1362
                      CHANNELS 6 Xposition Yposition Zposition Zrotation Xrotation Yrotation
                      End Site
                      {
                        OFFSET -0.2358 -1.9176 -0.0906
                      }
                    }
                  }
                }
                JOINT LeftFinger4
                {
                  OFFSET -0.6151 -8.0947 -3.5641
                  CHANNELS 6 Xposition Yposition Zposition Zrotation Xrotation Yrotation
                  JOINT LeftFinger41
                  {
                    OFFSET -0.4882 -2.341 -0.6462
                    CHANNELS 6 Xposition Yposition Zposition Zrotation Xrotation Yrotation
                    JOINT LeftFinger42
                    {
                      OFFSET -0.3575 -1.7167 -0.4742
                      CHANNELS 6 Xposition Yposition Zposition Zrotation Xrotation Yrotation
                      End Site
                      {
                        OFFSET -0.4187 -1.5237 -0.3496
                      }
                    }
                  }
                }
                JOINT LeftFinger0
                {
                  OFFSET -1.42 -1.8761 1.4223
                  CHANNELS 6 Xposition Yposition Zposition Zrotation Xrotation Yrotation
                  JOINT LeftFinger01
                  {
                    OFFSET -1.1471 -3.4929 2.6334
                    CHANNELS 6 Xposition Yposition Zposition Zrotation Xrotation Yrotation
                    JOINT LeftFinger02
                    {
                      OFFSET -0.823 -2.3 1.6571
                      CHANNELS 6 Xposition Yposition Zposition Zrotation Xrotation Yrotation
                      End Site
                      {
                        OFFSET -0.5822 -1.6914 1.1582
                      }
                    }
                  }
                }
              }
            }
          }
        }
        JOINT RightCollar
        {
          OFFSET -2.2603 21.606 7.4023
          CHANNELS 6 Xposition Yposition Zposition Zrotation Xrotation Yrotation
          JOINT RightShoulder
          {
            OFFSET -13.5187 -1.1334 -5.0155
            CHANNELS 6 Xposition Yposition Zposition Zrotation Xrotation Yrotation
            JOINT RightElbow
            {
              OFFSET 0.0994 -28.0499 -0.2431
              CHANNELS 6 Xposition Yposition Zposition Zrotation Xrotation Yrotation
              JOINT RightWrist
              {
                OFFSET -0.0679 -23.3996 -0.1402
                CHANNELS 6 Xposition Yposition Zposition Zrotation Xrotation Yrotation
                JOINT RightFinger1
                {
                  OFFSET -0.7932 -9.0691 2.5189
                  CHANNELS 6 Xposition Yposition Zposition Zrotation Xrotation Yrotation
                  JOINT RightFinger11
                  {
                    OFFSET 0.8272 -3.3923 0.5977
                    CHANNELS 6 Xposition Yposition Zposition Zrotation Xrotation Yrotation
                    JOINT RightFinger12
                    {
                      OFFSET 0.565 -2.3158 0.4082
                      CHANNELS 6 Xposition Yposition Zposition Zrotation Xrotation Yrotation
                      End Site
                      {
                        OFFSET 0.4919 -1.6479 0.2673
                      }
                    }
                  }
                }
                JOINT RightFinger2
                {
                  OFFSET -0.916 -9.2044 0.2193
                  CHANNELS 6 Xposition Yposition Zposition Zrotation Xrotation Yrotation
                  JOINT RightFinger21
                  {
                    OFFSET -0.0117 -4.1944 -0.0248
                    CHANNELS 6 Xposition Yposition Zposition Zrotation Xrotation Yrotation
                    JOINT RightFinger22
                    {
                      OFFSET -0.0071 -2.3249 -0.0142
                      CHANNELS 6 Xposition Yposition Zposition Zrotation Xrotation Yrotation
                      End Site
                      {
                        OFFSET 0.1475 -2.0882 0.0028
                      }
                    }
                  }
                }
                JOINT RightFinger3
                {
                  OFFSET -0.6113 -8.7231 -2.0637
                  CHANNELS 6 Xposition Yposition Zposition Zrotation Xrotation Yrotation
                  JOINT RightFinger31
                  {
                    OFFSET 0.1927 -3.8059 -0.2383
                    CHANNELS 6 Xposition Yposition Zposition Zrotation Xrotation Yrotation
                    JOINT RightFinger32
                    {
                      OFFSET 0.1091 -2.1688 -0.1362
                      CHANNELS 6 Xposition Yposition Zposition Zrotation Xrotation Yrotation
                      End Site
                      {
                        OFFSET 0.2358 -1.9176 -0.0906
                      }
                    }
                  }
                }
                JOINT RightFinger4
                {
                  OFFSET 0.6151 -8.0947 -3.564
                  CHANNELS 6 Xposition Yposition Zposition Zrotation Xrotation Yrotation
                  JOINT RightFinger41
                  {
                    OFFSET 0.4882 -2.341 -0.6462
                    CHANNELS 6 Xposition Yposition Zposition Zrotation Xrotation Yrotation
                    JOINT RightFinger42
                    {
                      OFFSET 0.3574 -1.7166 -0.4742
                      CHANNELS 6 Xposition Yposition Zposition Zrotation Xrotation Yrotation
                      End Site
                      {
                        OFFSET 0.4187 -1.5237 -0.3496
                      }
                    }
                  }
                }
                JOINT RightFinger0
                {
                  OFFSET 1.4199 -1.8761 1.4221
                  CHANNELS 6 Xposition Yposition Zposition Zrotation Xrotation Yrotation
                  JOINT RightFinger01
                  {
                    OFFSET 1.1472 -3.4929 2.6336
                    CHANNELS 6 Xposition Yposition Zposition Zrotation Xrotation Yrotation
                    JOINT RightFinger02
                    {
                      OFFSET 0.8229 -2.3 1.6571
                      CHANNELS 6 Xposition Yposition Zposition Zrotation Xrotation Yrotation
                      End Site
                      {
                        OFFSET 0.5822 -1.6914 1.1582
                      }
                    }
                  }
                }
              }
            }
          }
        }
      }
    }
  }
  JOINT RightHip
  {
    OFFSET -9.412 3.9771 -0.7758
    CHANNELS 6 Xposition Yposition Zposition Zrotation Xrotation Yrotation
    JOINT RightKnee
    {
      OFFSET -0.7531 -40.938 0
      CHANNELS 6 Xposition Yposition Zposition Zrotation Xrotation Yrotation
      JOINT RightAnkle
      {
        OFFSET 0 -40.1986 0
        CHANNELS 6 Xposition Yposition Zposition Zrotation Xrotation Yrotation
        JOINT RightToe
        {
          OFFSET 0 -4.4182 9.239
          CHANNELS 6 Xposition Yposition Zposition Zrotation Xrotation Yrotation
          End Site
          {
            OFFSET 0 0 6.1981
          }
        }
      }
    }
  }
  JOINT LeftHip
  {
    OFFSET 9.4119 3.9773 -0.7758
    CHANNELS 6 Xposition Yposition Zposition Zrotation Xrotation Yrotation
    JOINT LeftKnee
    {
      OFFSET 0.7532 -40.9383 0
      CHANNELS 6 Xposition Yposition Zposition Zrotation Xrotation Yrotation
      JOINT LeftAnkle
      {
        OFFSET 0 -40.1986 0
        CHANNELS 6 Xposition Yposition Zposition Zrotation Xrotation Yrotation
        JOINT LeftToe
        {
          OFFSET 0 -4.4182 9.239
          CHANNELS 6 Xposition Yposition Zposition Zrotation Xrotation Yrotation
          End Site
          {
            OFFSET 0 0 6.1981
          }
        }
      }
    }
  }
}
MOTION
Frames:	4
Frame Time:	0.0333333
5.80788e-005 67.184 3.4734 0 0 -0 0 8.7983 -4.7612 0 0 -0 0 8.0291 0.4195 0 0 -0 0 9.9351 -2.2114 0 0 -0 0 22.3885 -0.4656 0 0 -0 -0.0001 12.643 3.4389 0 0 -0 2.2603 21.606 7.4023 0 0 -12.5014 13.5163 -1.1332 -5.0146 88.1196 14.2451 10.6914 -0.0995 -28.05 -0.2431 -0.00160068 -0.00239207 0.000740045 0.0679 -23.3996 -0.1402 -8.4365e-005 7.00714e-005 -9.52055e-007 0.7932 -9.069 2.5189 9.93923e-017 -1.98785e-016 -1.59028e-015 -0.8272 -3.3923 0.5977 9.93923e-017 -5.96354e-016 -1.59028e-015 -0.5649 -2.3158 0.4082 -9.93923e-017 -5.96354e-016 -1.59028e-015 0.9159 -9.2044 0.2193 9.93923e-017 -1.98785e-016 -1.59028e-015 0.0117 -4.1944 -0.0248 -0.0128176 0.00232552 8.52707e-005 0.0071 -2.3249 -0.0142 9.93923e-017 5.96354e-016 -0 0.6113 -8.7231 -2.0637 9.93923e-017 -1.98785e-016 -1.59028e-015 -0.1927 -3.8059 -0.2383 -0.0160551 0.00299681 0.000857156 -0.1091 -2.1688 -0.1362 -2.48481e-016 0 3.18055e-015 -0.6151 -8.0947 -3.5641 9.93923e-017 -1.98785e-016 -1.59028e-015 -0.4882 -2.341 -0.6462 -0.0125865 0.0031206 0.00282719 -0.3575 -1.7167 -0.4742 0 1.98785e-016 -0 -1.42 -1.8761 1.4223 9.93923e-017 -1.98785e-016 -1.59028e-015 -1.1471 -3.4929 2.6334 9.93923e-017 -5.96354e-016 -1.59028e-015 -0.823 -2.3 1.6571 -9.93923e-017 -5.96354e-016 -1.59028e-015 -2.2603 21.606 7.4023 -0.865644 0.16582 7.03859 -13.5187 -1.1334 -5.0155 -88.0329 10.2057 -10.5567 0.0994 -28.0499 -0.2431 0.0015593 -0.00248883 -0.000788628 -0.0679 -23.3996 -0.1402 7.87605e-005 4.10553e-005 1.24965e-005 -0.7932 -9.0691 2.5189 -3.97569e-016 -7.95139e-016 3.18055e-015 0.8272 -3.3923 0.5977 -1.98785e-016 -3.97569e-016 3.18055e-015 0.565 -2.3158 0.4082 -1.98785e-016 0 3.18055e-015 -0.916 -9.2044 0.2193 -3.97569e-016 -7.95139e-016 3.18055e-015 -0.0117 -4.1944 -0.0248 0.0129473 0.00231697 -8.70038e-005 -0.0071 -2.3249 -0.0142 9.93923e-017 -7.95139e-016 1.59028e-015 -0.6113 -8.7231 -2.0637 -3.97569e-016 -7.95139e-016 3.18055e-015 0.1927 -3.8059 -0.2383 0.0163314 0.00303369 -0.000872333 0.1091 -2.1688 -0.1362 3.97569e-016 7.95139e-016 -3.18055e-015 0.6151 -8.0947 -3.564 -3.97569e-016 -7.95139e-016 3.18055e-015 0.4882 -2.341 -0.6462 0.0145763 0.00367772 -0.00326275 0.3574 -1.7166 -0.4742 9.93923e-017 -3.97569e-016 -0 1.4199 -1.8761 1.4221 -3.97569e-016 -7.95139e-016 3.18055e-015 1.1472 -3.4929 2.6336 -1.98785e-016 -3.97569e-016 3.18055e-015 0.8229 -2.3 1.6571 -1.98785e-016 0 3.18055e-015 -9.412 3.9771 -0.7758 3.42485 1.36937 -0.0640303 -0.7531 -40.938 0 0.000136572 0.69354 0.00145564 1.77636e-015 -40.1986 -1.11022e-016 -3.42573 -2.06297 -0.0607933 8.88178e-016 -4.4182 9.239 -3.19502e-024 0 -1.48106e-024 9.4119 3.9773 -0.7758 -3.42498 1.36123 0.0639712 0.7532 -40.9383 2.22045e-016 -6.769e-005 0.712612 -0.0012277 8.88179e-016 -40.1986 0 3.42582 -2.07388 0.0612819 -8.88178e-016 -4.4182 9.239 2.55305e-023 0 -2.31416e-026 
29.5117 20.2306 10.1742 -6.17034e-008 -72.5496 -7.28923e-008 3.55271e-015 8.7983 -4.7612 -0.0367413 0.641311 -0.117257 3.55271e-015 8.0291 0.4195 -0.072176 1.28272 -0.234123 0 9.9351 -2.2114 -0.0721758 1.2827 -0.234123 0 22.3885 -0.4656 9.69684e-007 29.6623 -4.59644e-006 -0.0001 12.643 3.4389 4.83534e-008 6.699 1.09014e-007 2.2603 21.606 7.4023 -13.7719 5.43315 -10.9205 13.5163 -1.1332 -5.0146 55.37 -7.06723 27.502 -0.0995 -28.05 -0.2431 -21.9245 -14.6852 -34.2682 0.0679 -23.3996 -0.1402 -5.20574 5.01658 -3.25407 0.7932 -9.069 2.5189 1.99768e-006 8.46893e-007 2.92521e-006 -0.8272 -3.3923 0.5977 2.11262e-006 -8.71767e-006 -9.9768e-007 -0.5649 -2.3158 0.4082 -2.11262e-006 8.71767e-006 9.9768e-007 0.9159 -9.2044 0.2193 1.99768e-006 8.46893e-007 2.92521e-006 0.0117 -4.1944 -0.0248 -0.0128262 0.00231673 8.41528e-005 0.0071 -2.3249 -0.0142 -2.35389e-006 5.00403e-008 -5.74866e-006 0.6113 -8.7231 -2.0637 1.99768e-006 8.46893e-007 2.92521e-006 -0.1927 -3.8059 -0.2383 -0.0159659 0.00298419 0.000851804 -0.1091 -2.1688 -0.1362 -2.29065e-006 -3.06218e-006 -6.03712e-006 -0.6151 -8.0947 -3.5641 1.99768e-006 8.46893e-007 2.92521e-006 -0.4882 -2.341 -0.6462 -0.0126163 0.00313186 0.00283269 -0.3575 -1.7167 -0.4742 -4.28729e-006 -2.34214e-006 -8.96219e-006 -1.42 -1.8761 1.4223 1.99768e-006 8.46893e-007 2.92521e-006 -1.1471 -3.4929 2.6334 2.11262e-006 -8.71767e-006 -9.9768e-007 -0.823 -2.3 1.6571 -2.11262e-006 8.71767e-006 9.9768e-007 -2.2603 21.606 7.4023 12.9005 5.62402 5.53248 -13.5187 -1.1334 -5.0155 -54.48 -10.1805 -24.5389 0.0994 -28.0499 -0.2431 21.4269 -15.3717 34.3236 -0.0679 -23.3996 -0.1402 5.12038 4.95466 3.45997 -0.7932 -9.0691 2.5189 5.10687e-007 -5.41488e-007 8.6873e-006 0.8272 -3.3923 0.5977 -2.15178e-031 -1.59028e-015 -7.7526e-015 0.565 -2.3158 0.4082 -9.37955e-032 -7.95139e-016 -6.75868e-015 -0.916 -9.2044 0.2193 5.10687e-007 -5.41488e-007 8.6873e-006 -0.0117 -4.1944 -0.0248 0.0129233 0.00230655 -8.52883e-005 -0.0071 -2.3249 -0.0142 3.18055e-015 -1.59028e-015 7.55382e-015 -0.6113 -8.7231 -2.0637 5.10687e-007 -5.41488e-007 8.6873e-006 0.1927 -3.8059 -0.2383 0.0163747 0.0030236 -0.000879127 0.1091 -2.1688 -0.1362 -1.00384e-006 2.35855e-006 5.56888e-006 0.6151 -8.0947 -3.564 5.10687e-007 -5.41488e-007 8.6873e-006 0.4882 -2.341 -0.6462 0.0145649 0.00366914 -0.0032668 0.3574 -1.7166 -0.4742 -2.27654e-024 5.04744e-008 2.5842e-015 1.4199 -1.8761 1.4221 5.10687e-007 -5.41488e-007 8.6873e-006 1.1472 -3.4929 2.6336 -2.15178e-031 -1.59028e-015 -7.7526e-015 0.8229 -2.3 1.6571 -9.37955e-032 -7.95139e-016 -6.75868e-015 -9.412 3.9771 -0.7758 0.939102 -13.3238 -23.8083 -0.7531 -40.938 3.55271e-015 -29.8734 40.5449 18.731 7.10543e-015 -40.1986 7.10543e-015 9.43752 10.2665 1.44286 0 -4.4182 9.239 1.88629e-006 3.74501e-007 -5.12409e-008 9.4119 3.9773 -0.7758 -0.938125 -13.3249 23.8113 0.7532 -40.9383 0 29.871 40.5457 -18.7327 3.55271e-015 -40.1986 0 -9.43544 10.2665 -1.45102 -7.10543e-015 -4.4182 9.239 -8.54713e-007 -2.91479e-006 -1.45231e-006 
42.792 -0.346626 8.99571 180 -74.5793 -180 -7.10543e-015 8.7983 -4.7612 -0.0628022 1.03556 -0.167125 7.10543e-015 8.0291 0.4195 -0.122613 2.07131 -0.333195 0 9.9351 -2.2114 -0.122613 2.07133 -0.333196 -7.10543e-015 22.3885 -0.4656 1.69262e-005 42.8401 -4.25201e-005 -0.0001 12.643 3.4389 -3.1764e-007 9.54833 -1.59565e-008 2.2603 21.606 7.4023 -19.7566 7.85193 -9.94849 13.5163 -1.1332 -5.0146 41.9754 -17.8377 34.633 -0.0995 -28.05 -0.2431 -32.4992 -22.0324 -49.4374 0.0679 -23.3996 -0.1402 -7.22532 7.58471 -4.66052 0.7932 -9.069 2.5189 3.18055e-015 3.18055e-015 -0 -0.8272 -3.3923 0.5977 2.54688e-006 5.84601e-006 -4.13177e-006 -0.5649 -2.3158 0.4082 2.16666e-007 2.24202e-006 5.17468e-006 0.9159 -9.2044 0.2193 3.18055e-015 3.18055e-015 -0 0.0117 -4.1944 -0.0248 -0.0128786 0.00235192 8.94798e-005 0.0071 -2.3249 -0.0142 -2.32351e-006 -1.37943e-005 -4.21004e-006 0.6113 -8.7231 -2.0637 3.18055e-015 3.18055e-015 -0 -0.1927 -3.8059 -0.2383 -0.0160598 0.00299506 0.00085403 -0.1091 -2.1688 -0.1362 -2.06029e-006 8.83848e-006 3.2136e-006 -0.6151 -8.0947 -3.5641 3.18055e-015 3.18055e-015 -0 -0.4882 -2.341 -0.6462 -0.0125781 0.00312324 0.00282447 -0.3575 -1.7167 -0.4742 -1.59028e-015 6.36111e-015 -0 -1.42 -1.8761 1.4223 3.18055e-015 3.18055e-015 -0 -1.1471 -3.4929 2.6334 2.54688e-006 5.84601e-006 -4.13177e-006 -0.823 -2.3 1.6571 2.16666e-007 2.24202e-006 5.17468e-006 -2.2603 21.606 7.4023 18.9 8.04727 4.61784 -13.5187 -1.1334 -5.0155 -39.9771 -20.0422 -30.4427 0.0994 -28.0499 -0.2431 31.9774 -23.0846 49.5047 -0.0679 -23.3996 -0.1402 7.11591 7.49333 4.97376 -0.7932 -9.0691 2.5189 -3.18055e-015 3.18055e-015 9.54166e-015 0.8272 -3.3923 0.5977 -3.18055e-015 -3.18055e-015 1.43125e-014 0.565 -2.3158 0.4082 1.59028e-015 3.18055e-015 9.54166e-015 -0.916 -9.2044 0.2193 -3.18055e-015 3.18055e-015 9.54166e-015 -0.0117 -4.1944 -0.0248 0.0129765 0.00231163 -8.97961e-005 -0.0071 -2.3249 -0.0142 1.59028e-015 -3.18055e-015 -7.95139e-015 -0.6113 -8.7231 -2.0637 -3.18055e-015 3.18055e-015 9.54166e-015 0.1927 -3.8059 -0.2383 0.0163146 0.00302645 -0.000879615 0.1091 -2.1688 -0.1362 -6.22402e-006 8.32686e-007 1.71974e-006 0.6151 -8.0947 -3.564 -3.18055e-015 3.18055e-015 9.54166e-015 0.4882 -2.341 -0.6462 0.0145683 0.00367286 -0.00326329 0.3574 -1.7166 -0.4742 -7.01051e-006 1.41998e-006 2.89871e-006 1.4199 -1.8761 1.4221 -3.18055e-015 3.18055e-015 9.54166e-015 1.1472 -3.4929 2.6336 -3.18055e-015 -3.18055e-015 1.43125e-014 0.8229 -2.3 1.6571 1.59028e-015 3.18055e-015 9.54166e-015 -9.412 3.9771 -0.7758 -3.64941 -17.6373 -35.5186 -0.7531 -40.938 0 -55.2928 53.515 37.0353 -7.10543e-015 -40.1986 -7.10543e-015 14.9558 15.9483 1.93817 -3.55271e-015 -4.4182 9.239 3.00329e-006 -3.69094e-006 -8.49009e-008 9.4119 3.9773 -0.7758 3.62927 -17.64 35.4922 0.7532 -40.9383 0 55.2915 53.5156 -37.0399 3.55271e-015 -40.1986 -1.42109e-014 -14.9757 15.9482 -1.92092 0 -4.4182 9.239 -5.57577e-006 -1.45409e-006 2.50733e-006 
39.8407 4.47103 9.43612 -180 -81.3866 -180 0 8.7983 -4.7612 -0.0577469 1.18296 -0.155693 0 8.0291 0.4195 -0.112313 2.36609 -0.310292 0 9.9351 -2.2114 -0.112314 2.36609 -0.310293 -7.10543e-015 22.3885 -0.4656 -2.47193e-006 39.5328 7.27831e-006 -0.0001 12.643 3.4389 1.27976e-007 8.548 7.91219e-008 2.2603 21.606 7.4023 -17.7216 7.26476 -9.61269 13.5163 -1.1332 -5.0146 44.5441 -15.4495 32.8911 -0.0995 -28.05 -0.2431 -32.0368 -21.395 -46.5775 0.0679 -23.3996 -0.1402 -6.06682 7.70369 -4.23255 0.7932 -9.069 2.5189 5.04482e-007 8.01966e-006 6.48819e-006 -0.8272 -3.3923 0.5977 3.45614e-006 -1.75221e-006 1.04095e-006 -0.5649 -2.3158 0.4082 2.64115e-006 2.024e-006 -1.87736e-006 0.9159 -9.2044 0.2193 5.04482e-007 8.01966e-006 6.48819e-006 0.0117 -4.1944 -0.0248 -0.01275 0.00232262 9.94296e-005 0.0071 -2.3249 -0.0142 -4.77083e-015 0 1.59028e-015 0.6113 -8.7231 -2.0637 5.04482e-007 8.01966e-006 6.48819e-006 -0.1927 -3.8059 -0.2383 -0.0160588 0.00299608 0.000853426 -0.1091 -2.1688 -0.1362 -0 -6.36111e-015 -0 -0.6151 -8.0947 -3.5641 5.04482e-007 8.01966e-006 6.48819e-006 -0.4882 -2.341 -0.6462 -0.012524 0.00311844 0.00280994 -0.3575 -1.7167 -0.4742 -2.13507e-006 -1.03205e-006 -1.97983e-006 -1.42 -1.8761 1.4223 5.04482e-007 8.01966e-006 6.48819e-006 -1.1471 -3.4929 2.6334 3.45614e-006 -1.75221e-006 1.04095e-006 -0.823 -2.3 1.6571 2.64115e-006 2.024e-006 -1.87736e-006 -2.2603 21.606 7.4023 16.9053 7.4436 4.32208 -13.5187 -1.1334 -5.0155 -42.8208 -17.8372 -28.9543 0.0994 -28.0499 -0.2431 31.4783 -22.3439 46.6512 -0.0679 -23.3996 -0.1402 6.01377 7.61069 4.54372 -0.7932 -9.0691 2.5189 1.25914e-006 1.70943e-005 -3.20727e-006 0.8272 -3.3923 0.5977 3.74284e-007 -9.38218e-006 4.0485e-006 0.565 -2.3158 0.4082 9.54166e-015 -9.54166e-015 -0 -0.916 -9.2044 0.2193 1.25914e-006 1.70943e-005 -3.20727e-006 -0.0117 -4.1944 -0.0248 0.0129282 0.00229186 -7.31542e-005 -0.0071 -2.3249 -0.0142 -6.36111e-015 -3.18055e-015 -9.54166e-015 -0.6113 -8.7231 -2.0637 1.25914e-006 1.70943e-005 -3.20727e-006 0.1927 -3.8059 -0.2383 0.0163246 0.0030221 -0.00086774 0.1091 -2.1688 -0.1362 -2.27384e-006 -4.15548e-006 -2.95008e-006 0.6151 -8.0947 -3.564 1.25914e-006 1.70943e-005 -3.20727e-006 0.4882 -2.341 -0.6462 0.0146045 0.0036569 -0.00325449 0.3574 -1.7166 -0.4742 -9.54166e-015 0 7.95139e-015 1.4199 -1.8761 1.4221 1.25914e-006 1.70943e-005 -3.20727e-006 1.1472 -3.4929 2.6336 3.74284e-007 -9.38218e-006 4.0485e-006 0.8229 -2.3 1.6571 9.54166e-015 -9.54166e-015 -0 -9.412 3.9771 -0.7758 -2.3182 -16.1372 -32.6022 -0.7531 -40.938 3.55271e-015 -48.5243 51.0497 31.9898 -7.10543e-015 -40.1986 -3.55271e-015 13.9038 14.6667 1.6225 0 -4.4182 9.239 -1.07813e-006 -2.87078e-007 -1.31809e-006 9.4119 3.9773 -0.7758 2.25606 -16.1432 32.5142 0.7532 -40.9383 -7.10543e-015 48.5281 51.0527 -31.9987 3.55271e-015 -40.1986 -7.10543e-015 -13.9707 14.6663 -1.54593 0 -4.4182 9.239 -1.07802e-006 2.86788e-007 -1.31824e-006 
